<svg width="201" height="169" viewBox="0 0 201 169" fill="none" xmlns="http://www.w3.org/2000/svg">
<rect x="0.861786" width="200.057" height="168.382" fill="#79C99E"/>
<g clip-path="url(#clip0_25_2)">
<path d="M135.65 122.296L106.819 122.46V128.288C106.819 131.515 104.224 134.12 100.99 134.12C97.7618 134.12 95.1253 131.511 95.1253 128.292V122.464L66.093 122.462C60.8858 122.462 58.1105 116.179 61.582 112.187L74.1852 97.6879H71.4135C66.7709 97.6879 64.2605 92.2591 67.2715 88.7376L78.3089 75.8303H76.3448C72.4567 75.8303 70.3392 71.7314 72.8222 69.0333L97.4512 42.3444C99.3514 40.2858 102.607 40.2858 104.507 42.3438L129.155 69.0327C131.643 71.7308 129.52 75.8298 125.632 75.8298H123.664L134.691 88.7388C137.698 92.2621 135.187 97.6873 130.547 97.6873H127.77L140.373 112.187C143.854 116.212 141.003 122.296 135.65 122.296Z" fill="white"/>
</g>
<defs>
<clipPath id="clip0_25_2">
<rect width="81.8532" height="93.2746" fill="white" transform="translate(60.0454 40.845)"/>
</clipPath>
</defs>
</svg>
