<svg width="75" height="85" viewBox="0 0 75 85" fill="none" xmlns="http://www.w3.org/2000/svg">
<g clip-path="url(#clip0_14_58)">
<path d="M68.5731 74.2255L42.4232 74.3749V79.6858C42.4232 82.6259 40.07 84.9999 37.1368 84.9999C34.2086 84.9999 31.8174 82.6226 31.8174 79.6891V74.3783L5.48519 74.3766C0.762304 74.3766 -1.75491 68.6507 1.39368 65.0133L12.8247 51.8002H10.3108C6.1 51.8002 3.82307 46.8529 6.55406 43.6438L16.5649 31.8816H14.7835C11.2571 31.8816 9.33642 28.1463 11.5885 25.6876L33.9269 1.36628C35.6504 -0.509697 38.6034 -0.509697 40.3269 1.36573L62.6819 25.687C64.9389 28.1457 63.0135 31.8811 59.4869 31.8811H57.7021L67.703 43.6449C70.4307 46.8557 68.1531 51.7996 63.9446 51.7996H61.4258L72.8568 65.0128C76.0137 68.6806 73.4285 74.2255 68.5731 74.2255Z" fill="black"/>
<g clip-path="url(#clip1_14_58)">
<path d="M32.144 44.1139C33.7033 44.1139 34.9683 45.4042 34.9683 46.9959V52.7599C34.9683 54.351 33.7033 55.6419 32.144 55.6419H26.4952C24.9354 55.6419 23.6709 54.351 23.6709 52.7599V46.9959C23.6709 45.4042 24.9354 44.1139 26.4952 44.1139H32.144ZM31.2025 47.9566H27.4367V51.7992H31.2025V47.9566ZM32.144 59.4846C33.7033 59.4846 34.9683 60.7755 34.9683 62.3666V68.1306C34.9683 69.7217 33.7033 71.0126 32.144 71.0126H26.4952C24.9354 71.0126 23.6709 69.7217 23.6709 68.1306V62.3666C23.6709 60.7755 24.9354 59.4846 26.4952 59.4846H32.144ZM31.2025 63.3273H27.4367V67.1699H31.2025V63.3273ZM38.7342 46.9959C38.7342 45.4042 39.9992 44.1139 41.5585 44.1139H47.2073C48.7665 44.1139 50.0316 45.4042 50.0316 46.9959V52.7599C50.0316 54.351 48.7665 55.6419 47.2073 55.6419H41.5585C39.9992 55.6419 38.7342 54.351 38.7342 52.7599V46.9959ZM42.5 51.7992H46.2658V47.9566H42.5V51.7992ZM44.3829 69.0913H46.2658V71.0126H44.3829V69.0913ZM50.0316 71.0126H48.1487V69.0913H50.0316V71.0126ZM48.1487 59.4846H50.0316V67.1699H44.3829V65.2486H42.5V71.0126H38.7342V59.4846H44.3829V61.4059H48.1487V59.4846Z" fill="white"/>
</g>
</g>
<defs>
<clipPath id="clip0_14_58">
<rect width="74.2405" height="85" fill="white"/>
</clipPath>
<clipPath id="clip1_14_58">
<rect width="39.8653" height="45.7279" fill="white" transform="translate(17.2152 23.6709)"/>
</clipPath>
</defs>
</svg>
